<?xml version="1.0" encoding="utf-8"?>
<!-- Generator: Adobe Illustrator 21.1.0, SVG Export Plug-In . SVG Version: 6.00 Build 0)  -->
<svg version="1.1" id="Capa_1" xmlns="http://www.w3.org/2000/svg" xmlns:xlink="http://www.w3.org/1999/xlink" x="0px" y="0px"
	 viewBox="0 0 58 58" style="enable-background:new 0 0 58 58;" xml:space="preserve">
<style type="text/css">
	.st0{fill:#FFE292;}
	.st1{fill:#FFD16C;}
	.st2{fill:#FFB32C;}
	.st3{fill:#FFD97B;}
	.st4{fill:#FFE9A4;}
	.st5{fill:#FFD05A;}
</style>
<g id="XMLID_21_">
	<path id="XMLID_148_" class="st0" d="M29,48c-14.4,0-26-3-26-6v7c0,3,11.6,6,26,6s26-3,26-6v-7C55,45,43.4,48,29,48"/>
	<path id="XMLID_146_" class="st1" d="M26,26c-14.4,0-26-3-26-6l0,7c0,3,11.6,6,26,6s26-3,26-6v-7C52,23,40.4,26,26,26"/>
	<path id="XMLID_134_" class="st2" d="M48,23.1c-0.6,0.2-1.3,0.4-2,0.6v7c0.7-0.2,1.4-0.4,2-0.6V23.1"/>
	<path id="XMLID_133_" class="st2" d="M6,23.7c-0.7-0.2-1.4-0.4-2-0.6v7c0.6,0.2,1.3,0.4,2,0.6V23.7"/>
	<path id="XMLID_132_" class="st2" d="M43,24.4c-0.6,0.1-1.3,0.3-2,0.4v7c0.7-0.1,1.4-0.2,2-0.4V24.4"/>
	<path id="XMLID_131_" class="st2" d="M11,24.8c-0.7-0.1-1.4-0.2-2-0.4v7c0.6,0.1,1.3,0.3,2,0.4V24.8"/>
	<path id="XMLID_130_" class="st2" d="M38,25.3c-0.7,0.1-1.3,0.2-2,0.2v7c0.7-0.1,1.3-0.1,2-0.2V25.3"/>
	<path id="XMLID_129_" class="st2" d="M16,25.5c-0.7-0.1-1.3-0.1-2-0.2v7c0.7,0.1,1.3,0.2,2,0.2V25.5"/>
	<path id="XMLID_128_" class="st2" d="M33,25.8c-0.7,0-1.3,0.1-2,0.1v7c0.7,0,1.3-0.1,2-0.1V25.8"/>
	<path id="XMLID_127_" class="st2" d="M21,25.9c-0.7,0-1.3-0.1-2-0.1v7c0.7,0,1.3,0.1,2,0.1V25.9"/>
	<path id="XMLID_126_" class="st2" d="M26,26c-0.3,0-0.7,0-1,0v7c0.3,0,0.7,0,1,0s0.7,0,1,0v-7C26.7,26,26.3,26,26,26"/>
	<path id="XMLID_105_" class="st3" d="M7,16.5c-4.3,0.9-7,2.1-7,3.6c0,3,11.6,5.9,26,5.9s26-2.8,26-5.9c0-0.4-1.1-1.7-1.5-2.1
		c-4.8,1.3-10.8,3-18.5,3c-11.9,0-20.4-2.3-23.5-4.7"/>
	<path id="XMLID_116_" class="st2" d="M51,45.1c-0.6,0.2-1.3,0.4-2,0.6v7c0.7-0.2,1.4-0.4,2-0.6V45.1"/>
	<path id="XMLID_115_" class="st2" d="M9,45.7c-0.7-0.2-1.4-0.4-2-0.6v7c0.6,0.2,1.3,0.4,2,0.6V45.7"/>
	<path id="XMLID_114_" class="st2" d="M46,46.4c-0.6,0.1-1.3,0.3-2,0.4v7c0.7-0.1,1.4-0.2,2-0.4V46.4"/>
	<path id="XMLID_113_" class="st2" d="M14,46.8c-0.7-0.1-1.4-0.2-2-0.4v7c0.6,0.1,1.3,0.3,2,0.4V46.8"/>
	<path id="XMLID_112_" class="st2" d="M41,47.3c-0.7,0.1-1.3,0.2-2,0.2v7c0.7-0.1,1.3-0.1,2-0.2V47.3"/>
	<path id="XMLID_111_" class="st2" d="M19,47.5c-0.7-0.1-1.3-0.1-2-0.2v7c0.7,0.1,1.3,0.2,2,0.2V47.5"/>
	<path id="XMLID_110_" class="st2" d="M36,47.8c-0.7,0-1.3,0.1-2,0.1v7c0.7,0,1.3-0.1,2-0.1V47.8"/>
	<path id="XMLID_109_" class="st2" d="M24,47.9c-0.7,0-1.3-0.1-2-0.1v7c0.7,0,1.3,0.1,2,0.1V47.9"/>
	<path id="XMLID_108_" class="st2" d="M29,48c-0.3,0-0.7,0-1,0v7c0.3,0,0.7,0,1,0s0.7,0,1,0v-7C29.7,48,29.3,48,29,48"/>
	<path id="XMLID_107_" class="st3" d="M6.8,39.4C4.4,40.1,3,41.1,3,42.1c0,3,11.6,5.9,26,5.9c14.4,0,26-2.8,26-5.9
		c0-0.4-1.9-1.9-2.3-2.3C48.1,41.6,41.5,44,32,44c-12.2,0-21-2.4-23.8-4.9"/>
	<path id="XMLID_145_" class="st4" d="M6,8.1C6,5.1,17.6,3,32,3s26,2.1,26,5.1c0,3-11.6,5.9-26,5.9S6,11.2,6,8.1"/>
	<path id="XMLID_144_" class="st0" d="M32,14C17.6,14,6,11,6,8v7c0,3,11.6,6,26,6s26-3,26-6V8C58,11,46.4,14,32,14"/>
	<path id="XMLID_143_" class="st5" d="M54,11.1c-0.6,0.2-1.3,0.4-2,0.6v7c0.7-0.2,1.4-0.4,2-0.6V11.1"/>
	<path id="XMLID_142_" class="st5" d="M12,11.7c-0.7-0.2-1.4-0.4-2-0.6v7c0.6,0.2,1.3,0.4,2,0.6V11.7"/>
	<path id="XMLID_141_" class="st5" d="M49,12.4c-0.6,0.1-1.3,0.3-2,0.4v7c0.7-0.1,1.4-0.2,2-0.4V12.4"/>
	<path id="XMLID_140_" class="st5" d="M17,12.8c-0.7-0.1-1.4-0.2-2-0.4v7c0.6,0.1,1.3,0.3,2,0.4V12.8"/>
	<path id="XMLID_139_" class="st5" d="M44,13.3c-0.7,0.1-1.3,0.2-2,0.2v7c0.7-0.1,1.3-0.1,2-0.2V13.3"/>
	<path id="XMLID_138_" class="st5" d="M22,13.5c-0.7-0.1-1.3-0.1-2-0.2v7c0.7,0.1,1.3,0.2,2,0.2V13.5"/>
	<path id="XMLID_137_" class="st5" d="M39,13.8c-0.7,0-1.3,0.1-2,0.1v7c0.7,0,1.3-0.1,2-0.1V13.8"/>
	<path id="XMLID_136_" class="st5" d="M27,13.9c-0.7,0-1.3-0.1-2-0.1v7c0.7,0,1.3,0.1,2,0.1V13.9"/>
	<path id="XMLID_135_" class="st5" d="M32,14c-0.3,0-0.7,0-1,0v7c0.3,0,0.7,0,1,0s0.7,0,1,0v-7C32.7,14,32.3,14,32,14"/>
	<path id="XMLID_147_" class="st0" d="M32,37c-14.4,0-26-3-26-6v7c0,3,11.6,6,26,6s26-3,26-6v-7C58,34,46.4,37,32,37"/>
	<path id="XMLID_125_" class="st5" d="M54,34.1c-0.6,0.2-1.3,0.4-2,0.6v7c0.7-0.2,1.4-0.4,2-0.6V34.1"/>
	<path id="XMLID_124_" class="st5" d="M12,34.7c-0.7-0.2-1.4-0.4-2-0.6v7c0.6,0.2,1.3,0.4,2,0.6V34.7"/>
	<path id="XMLID_123_" class="st5" d="M49,35.4c-0.6,0.1-1.3,0.3-2,0.4v7c0.7-0.1,1.4-0.2,2-0.4V35.4"/>
	<path id="XMLID_122_" class="st5" d="M17,35.8c-0.7-0.1-1.4-0.2-2-0.4v7c0.6,0.1,1.3,0.3,2,0.4V35.8"/>
	<path id="XMLID_121_" class="st5" d="M44,36.3c-0.7,0.1-1.3,0.2-2,0.2v7c0.7-0.1,1.3-0.1,2-0.2V36.3"/>
	<path id="XMLID_120_" class="st5" d="M22,36.5c-0.7-0.1-1.3-0.1-2-0.2v7c0.7,0.1,1.3,0.2,2,0.2V36.5"/>
	<path id="XMLID_119_" class="st5" d="M39,36.8c-0.7,0-1.3,0.1-2,0.1v7c0.7,0,1.3-0.1,2-0.1V36.8"/>
	<path id="XMLID_118_" class="st5" d="M27,36.9c-0.7,0-1.3-0.1-2-0.1v7c0.7,0,1.3,0.1,2,0.1V36.9"/>
	<path id="XMLID_117_" class="st5" d="M32,37c-0.3,0-0.7,0-1,0v7c0.3,0,0.7,0,1,0s0.7,0,1,0v-7C32.7,37,32.3,37,32,37"/>
	<path id="XMLID_106_" class="st4" d="M26,33c-8,0-15.2-0.9-19.9-2.3C6,30.9,6,31,6,31.1c0,3,11.6,5.9,26,5.9s26-2.8,26-5.9
		c0-1.4-2.3-2.5-6.2-3.4C50.1,30.5,39.2,33,26,33"/>
</g>
<g>
	<path class="st5" d="M35.2,7.3c-0.9-0.6-3.2-1.5-7.3-1c-3.7,0.4-3.9,1.5-3.3,2.2L35.2,7.3z M25.6,9.1c2,1.3,5.9,1.5,9.5,1.1
		c2.6-0.3,4-0.6,5.1-0.9l1.6,0.6c-1,0.3-3,0.7-6.1,1c-6.1,0.6-11.4,0-13.7-1.6s-0.6-3.2,5.2-3.8C33.7,4.8,37.6,6.2,39,7.1
		c0.3,0.2,0.4,0.4,0.5,0.5L25.6,9.1z"/>
</g>
</svg>
